<?xml version="1.0" standalone="no"?>
<!DOCTYPE svg PUBLIC "-//W3C//DTD SVG 20010904//EN"
 "http://www.w3.org/TR/2001/REC-SVG-20010904/DTD/svg10.dtd">
<svg version="1.0" xmlns="http://www.w3.org/2000/svg"
 width="700.000000pt" height="700.000000pt" viewBox="0 0 700.000000 700.000000"
 preserveAspectRatio="xMidYMid meet">
<metadata>
Created by potrace 1.14, written by Peter Selinger 2001-2017
</metadata>
<g transform="translate(0.000000,700.000000) scale(0.100000,-0.100000)"
fill="#000000" stroke="none">
<path d="M3298 6995 c-2 -1 -41 -5 -88 -9 -120 -9 -330 -39 -400 -56 -19 -5
-51 -12 -70 -15 -66 -11 -255 -64 -375 -105 -352 -122 -667 -288 -960 -508
-248 -186 -458 -391 -649 -632 -306 -387 -531 -841 -650 -1315 -21 -84 -32
-138 -61 -295 -11 -58 -20 -135 -31 -255 -11 -112 -11 -514 -1 -615 9 -82 25
-210 33 -250 2 -14 7 -41 10 -60 27 -172 122 -501 202 -700 337 -838 1027
-1540 1867 -1898 178 -76 465 -169 603 -197 156 -31 242 -46 294 -51 35 -3 66
-8 69 -9 29 -18 569 -26 724 -11 137 13 370 50 460 73 33 8 70 17 83 19 74 14
461 144 487 164 6 4 21 11 35 15 96 29 366 176 555 301 890 592 1454 1543
1552 2614 10 111 10 469 0 590 -9 110 -32 272 -53 380 -8 41 -17 86 -20 100
-3 14 -16 68 -30 120 -122 453 -316 851 -598 1225 -33 44 -62 82 -65 85 -3 3
-28 32 -55 65 -27 33 -124 134 -215 225 -387 384 -824 653 -1351 831 -125 42
-358 104 -430 114 -25 3 -52 8 -60 10 -8 2 -33 7 -55 10 -22 3 -53 8 -70 10
-30 5 -91 12 -175 21 -50 5 -507 14 -512 9z m497 -199 c22 -3 65 -8 95 -11
697 -78 1396 -409 1900 -899 120 -118 227 -233 290 -316 19 -25 37 -47 41 -50
21 -17 189 -270 249 -375 167 -292 308 -657 364 -945 2 -14 10 -50 16 -80 10
-55 13 -69 25 -145 22 -148 29 -261 30 -470 0 -295 -25 -519 -86 -774 -80
-332 -230 -692 -410 -979 -55 -89 -248 -357 -267 -372 -4 -3 -35 -38 -70 -77
-61 -70 -152 -163 -244 -249 -34 -32 -152 -130 -245 -204 -6 -5 -60 -42 -120
-83 -270 -185 -521 -308 -838 -412 -138 -46 -342 -98 -425 -110 -14 -2 -68
-11 -120 -19 -143 -24 -254 -31 -480 -31 -179 0 -314 7 -400 19 -14 3 -47 7
-75 11 -84 11 -255 45 -355 72 -928 241 -1703 870 -2133 1729 -168 335 -292
754 -322 1084 -4 36 -9 76 -12 90 -3 14 -6 126 -8 250 -2 204 3 311 21 455 6
47 9 68 18 133 12 79 40 210 67 310 228 851 777 1567 1544 2017 92 54 342 177
420 206 352 132 646 201 953 225 42 3 78 7 80 9 5 5 453 -3 497 -9z"/>
<path d="M3397 6674 c-1 -1 -30 -5 -65 -8 -340 -35 -660 -187 -907 -431 -102
-101 -171 -182 -163 -191 3 -2 47 -11 97 -19 414 -67 783 -280 1059 -610 41
-49 78 -91 81 -92 3 -1 35 34 71 78 160 198 348 348 580 465 90 45 281 118
338 129 9 1 53 10 97 19 44 8 97 18 118 21 21 4 37 10 35 15 -10 29 -171 200
-254 271 -206 176 -532 315 -805 344 -53 6 -277 13 -282 9z"/>
<path d="M4615 6458 c108 -96 196 -192 278 -300 55 -74 87 -108 101 -109 12 0
28 -2 36 -3 8 -2 42 -6 75 -10 127 -14 283 -49 400 -91 l70 -25 -35 31 c-147
128 -374 277 -605 394 -156 80 -182 92 -315 142 l-65 25 60 -54z"/>
<path d="M2320 6464 c-227 -92 -447 -211 -635 -342 -77 -54 -255 -191 -255
-196 0 -2 39 10 88 26 134 45 260 73 377 83 120 12 129 14 150 42 11 14 47 63
80 107 60 81 223 251 270 282 24 15 34 35 18 34 -5 -1 -46 -16 -93 -36z"/>
<path d="M2117 5813 c-61 -121 -102 -247 -133 -411 -21 -112 -23 -148 -20
-302 4 -126 11 -202 25 -270 21 -94 64 -238 83 -273 11 -22 10 -23 83 67 94
118 269 272 407 360 91 58 244 131 358 171 100 35 310 85 358 85 12 0 22 6 22
13 0 12 -87 116 -142 170 -228 223 -574 389 -883 422 -27 3 -69 8 -92 11 -42
4 -43 4 -66 -43z"/>
<path d="M4775 5853 c-78 -7 -255 -44 -332 -69 -160 -53 -397 -182 -512 -280
-66 -56 -158 -150 -200 -204 l-44 -55 49 -6 c47 -7 71 -11 139 -25 168 -34
406 -131 560 -229 152 -97 329 -255 433 -388 25 -32 49 -54 52 -50 25 27 74
201 99 348 17 103 21 362 7 455 -15 94 -57 253 -90 339 -56 145 -73 172 -106
169 -8 -1 -33 -3 -55 -5z"/>
<path d="M1870 5843 c-115 -18 -289 -65 -367 -99 -18 -8 -50 -21 -70 -30 -57
-25 -211 -117 -271 -162 -199 -150 -370 -361 -476 -587 -61 -130 -119 -334
-133 -470 -8 -76 -8 -281 0 -360 11 -114 79 -364 116 -433 5 -8 20 6 46 40 63
84 242 258 335 327 179 132 398 236 613 290 108 27 228 47 255 42 8 -1 5 15
-9 51 -64 160 -112 335 -126 465 -10 88 -10 373 0 438 15 104 19 122 38 198
17 66 66 212 94 280 7 18 5 18 -45 10z"/>
<path d="M5085 5833 c58 -140 110 -329 131 -478 10 -70 12 -360 2 -420 -4 -27
-10 -66 -13 -85 -15 -101 -70 -294 -110 -384 -14 -31 -24 -56 -22 -57 8 -2 42
-8 111 -19 401 -61 787 -278 1049 -590 44 -52 84 -96 88 -98 8 -3 50 100 72
178 18 64 43 184 53 255 10 71 11 280 2 345 -4 30 -10 75 -14 100 -10 76 -71
275 -111 362 -195 432 -565 746 -1021 867 -20 6 -50 13 -67 15 -16 3 -41 8
-55 11 -14 3 -42 7 -64 10 -33 4 -37 3 -31 -12z"/>
<path d="M3245 5045 c-398 -72 -764 -291 -985 -592 -34 -46 -34 -46 45 -57 22
-3 58 -8 80 -11 60 -8 221 -52 300 -82 156 -58 361 -174 494 -280 l33 -27 -7
44 c-4 25 -8 137 -10 250 -3 170 -1 223 15 310 28 153 56 251 118 405 24 60
25 59 -83 40z"/>
<path d="M3657 5053 c-3 -2 13 -50 35 -105 43 -109 78 -240 103 -378 21 -120
14 -485 -10 -557 -7 -22 6 -15 79 41 91 69 210 142 311 190 92 44 319 121 383
130 24 3 46 7 50 10 4 2 36 7 72 11 36 4 71 10 78 14 10 6 -8 34 -66 102 -174
205 -388 356 -638 450 -134 51 -382 108 -397 92z"/>
<path d="M3472 4853 c-23 -64 -40 -120 -47 -149 -37 -170 -48 -258 -48 -389 0
-68 8 -185 19 -255 14 -95 85 -323 103 -335 19 -11 102 295 116 430 7 65 7
279 0 330 -20 151 -94 425 -115 425 -4 0 -17 -26 -28 -57z"/>
<path d="M1849 4206 c-2 -2 -24 -7 -49 -11 -251 -35 -569 -199 -780 -402 -91
-86 -240 -268 -240 -291 0 -14 100 -152 147 -203 180 -198 377 -333 619 -425
72 -27 231 -69 300 -80 44 -6 47 -5 39 12 -169 409 -185 852 -45 1259 20 61
41 118 45 128 5 13 2 17 -12 17 -11 0 -22 -2 -24 -4z"/>
<path d="M2291 4179 c39 -55 202 -213 279 -271 197 -148 471 -265 691 -294 62
-8 62 -8 -31 96 -220 245 -518 415 -842 480 -55 11 -104 20 -110 20 -5 0 1
-14 13 -31z"/>
<path d="M4556 4178 c-231 -58 -429 -155 -604 -295 -64 -52 -238 -226 -253
-255 -13 -25 6 -24 139 6 225 51 424 145 607 285 67 51 202 184 254 249 l33
42 -33 -2 c-19 -1 -83 -15 -143 -30z"/>
<path d="M5110 4206 c0 -3 14 -40 30 -83 42 -109 75 -235 97 -368 4 -28 8
-151 7 -275 0 -205 -3 -235 -27 -340 -22 -96 -73 -263 -102 -332 -9 -23 -5
-23 113 2 120 24 243 66 365 125 80 38 196 108 234 140 6 5 26 21 45 35 95 71
250 238 323 347 32 50 35 42 -71 179 -232 300 -604 515 -981 569 -18 3 -33 3
-33 1z"/>
<path d="M2061 4123 c-20 -39 -79 -233 -95 -313 -31 -164 -40 -352 -22 -485
13 -96 17 -120 22 -137 3 -10 7 -30 10 -45 6 -37 72 -236 88 -267 l12 -25 45
57 c189 244 446 443 706 549 51 21 93 40 93 43 0 4 -17 12 -37 19 -149 53
-385 194 -508 303 -97 86 -194 189 -255 271 -39 52 -45 55 -59 30z"/>
<path d="M4863 4072 c-113 -143 -265 -285 -410 -379 -85 -56 -268 -150 -335
-174 -21 -7 -38 -16 -38 -19 0 -3 17 -12 38 -19 66 -24 225 -103 297 -149 161
-103 322 -247 438 -392 33 -41 64 -75 70 -75 12 0 42 76 78 199 26 90 34 126
55 266 8 56 8 277 -1 350 -18 156 -106 461 -133 460 -4 -1 -31 -31 -59 -68z"/>
<path d="M360 4070 c-1 -8 -3 -24 -5 -35 -10 -56 -23 -159 -34 -265 -9 -87 -7
-525 2 -570 3 -14 8 -54 12 -90 3 -36 8 -72 10 -80 2 -8 6 -35 9 -59 7 -57 13
-62 21 -15 27 161 84 340 152 481 l30 61 -34 74 c-64 134 -101 247 -147 453
-8 33 -15 53 -16 45z"/>
<path d="M6630 4079 c0 -5 -13 -79 -25 -138 -18 -95 -79 -266 -134 -380 -24
-51 -27 -63 -17 -83 56 -107 129 -313 150 -418 21 -106 27 -134 30 -137 2 -2
7 16 10 40 4 24 9 55 11 68 22 134 29 242 29 459 1 113 -3 243 -7 290 -9 98
-37 293 -43 299 -2 2 -4 2 -4 0z"/>
<path d="M3259 3386 c-2 -2 -22 -7 -44 -10 -23 -4 -51 -9 -63 -11 -12 -3 -31
-7 -43 -10 -135 -29 -391 -152 -522 -251 -92 -69 -229 -199 -285 -272 -33 -41
-33 -42 -10 -42 41 0 262 58 344 90 113 45 254 121 347 187 83 60 266 233 306
291 l22 32 -24 0 c-13 0 -26 -2 -28 -4z"/>
<path d="M3690 3385 c0 -6 36 -48 115 -133 152 -163 376 -308 594 -384 90 -31
277 -78 312 -78 19 0 19 2 -9 38 -60 75 -219 224 -307 288 -49 35 -148 93
-220 128 -150 75 -220 98 -385 131 -80 16 -100 18 -100 10z"/>
<path d="M655 3263 c-41 -97 -91 -295 -102 -402 -9 -85 -9 -290 0 -361 22
-176 71 -339 154 -504 178 -360 507 -648 878 -772 75 -25 287 -74 320 -74 12
0 11 8 -5 51 -95 241 -131 440 -125 694 2 94 6 186 10 205 11 63 26 144 31
169 9 43 66 216 90 268 l23 53 -22 5 c-12 2 -44 7 -72 10 -272 33 -603 178
-840 368 -86 69 -217 203 -275 280 -19 25 -38 47 -42 47 -4 0 -15 -17 -23 -37z"/>
<path d="M6280 3253 c-55 -77 -248 -264 -340 -330 -106 -75 -242 -152 -340
-193 -41 -17 -84 -35 -95 -40 -30 -14 -194 -59 -240 -66 -22 -3 -43 -8 -46
-10 -3 -2 -35 -6 -70 -10 -35 -3 -66 -8 -68 -10 -2 -2 3 -23 11 -46 61 -172
79 -226 83 -248 3 -14 7 -36 10 -50 45 -196 54 -515 20 -680 -3 -14 -8 -38
-11 -55 -12 -71 -64 -239 -96 -314 -10 -24 -17 -46 -14 -48 9 -10 207 31 305
63 559 183 961 659 1052 1248 20 126 17 329 -6 472 -18 117 -91 354 -111 361
-6 2 -26 -18 -44 -44z"/>
<path d="M3481 3239 c-21 -46 -68 -204 -75 -248 -3 -14 -8 -46 -12 -71 -13
-83 -14 -95 -15 -220 0 -107 6 -212 15 -262 28 -149 89 -348 107 -348 14 0 83
229 103 345 29 166 23 390 -14 565 -17 77 -75 269 -86 279 -2 2 -13 -16 -23
-40z"/>
<path d="M3175 2975 c-60 -52 -239 -165 -340 -214 -158 -78 -420 -154 -558
-163 -21 -1 -40 -5 -43 -9 -7 -13 82 -118 183 -216 199 -193 469 -340 734
-399 47 -10 174 -33 186 -34 9 0 6 16 -9 53 -43 106 -86 244 -102 322 -8 44
-19 94 -22 110 -12 50 -14 436 -3 493 15 79 10 89 -26 57z"/>
<path d="M3794 2954 c4 -27 9 -139 11 -249 3 -163 0 -219 -15 -304 -22 -121
-66 -274 -109 -381 -16 -41 -28 -76 -26 -78 2 -2 54 6 117 17 394 71 739 283
981 602 22 30 16 33 -94 48 -279 37 -565 161 -813 350 l-59 44 7 -49z"/>
<path d="M2072 2443 c-16 -29 -70 -204 -76 -247 -4 -21 -8 -42 -11 -45 -18
-31 -27 -361 -13 -491 15 -133 76 -335 140 -463 l28 -57 63 5 c241 21 451 88
665 212 144 83 288 206 404 345 38 46 39 47 16 52 -13 3 -72 15 -133 26 -145
29 -295 80 -430 147 -262 132 -427 268 -641 531 -1 2 -7 -5 -12 -15z"/>
<path d="M4870 2403 c-269 -331 -663 -564 -1070 -633 -60 -10 -100 -17 -108
-19 -8 -2 69 -92 139 -161 221 -220 544 -387 819 -425 25 -3 52 -8 60 -10 8
-2 46 -6 83 -10 l68 -6 38 83 c61 133 111 307 128 443 15 117 8 372 -12 480
-19 100 -77 289 -94 306 -3 4 -26 -18 -51 -48z"/>
<path d="M3449 1622 c-160 -207 -395 -395 -633 -506 -148 -70 -366 -134 -504
-150 -24 -2 -46 -7 -49 -10 -7 -7 53 -81 132 -164 60 -64 212 -191 256 -215
13 -7 44 -25 69 -41 120 -78 360 -166 520 -191 25 -4 54 -9 65 -12 32 -7 338
-5 397 2 268 34 560 162 777 340 101 83 271 268 258 281 -2 3 -24 7 -48 10
-143 16 -355 79 -504 148 -235 110 -484 307 -627 498 -24 31 -48 59 -54 62 -6
2 -30 -21 -55 -52z"/>
<path d="M1461 1048 c149 -132 449 -326 644 -417 123 -58 185 -85 260 -112
l80 -30 -40 33 c-52 43 -192 182 -234 233 -18 22 -58 75 -88 118 -46 65 -59
77 -84 78 -16 1 -32 2 -36 3 -5 1 -42 6 -83 10 -41 5 -84 10 -95 13 -11 2 -44
8 -74 14 -29 6 -105 28 -169 49 l-116 38 35 -30z"/>
<path d="M5515 1059 c-111 -44 -301 -85 -487 -104 l-56 -6 -75 -102 c-77 -105
-190 -228 -287 -311 -35 -30 -46 -44 -30 -37 14 5 68 26 120 47 213 83 451
214 656 362 112 80 226 171 214 171 -3 0 -27 -9 -55 -20z"/>
</g>
</svg>
